<svg>
  <g class="outline">
    <path d="M15.944,32.002l-4-7.373H3.359V0H28.64v24.629h-8.695L15.944,32.002z M4.359,23.629h8.181l3.404,6.275l3.405-6.275h8.291V1   H4.359V23.629z" />
  </g>
  <g>
    <path d="M21.431,5.03H10.569c-1.022,0-1.811,0.789-1.811,1.814v10.884c0,1.023,0.788,1.814,1.811,1.814h10.862   c1.022,0,1.811-0.79,1.811-1.814V6.843C23.242,5.819,22.453,5.03,21.431,5.03z M16.011,9.435c1.606,0,2.908,1.264,2.908,2.824   c0,1.559-1.302,2.824-2.908,2.824c-1.605,0-2.907-1.265-2.907-2.824C13.104,10.699,14.405,9.435,16.011,9.435z M21.431,17.274   c0,0.318-0.136,0.453-0.452,0.453h-9.957c-0.317,0-0.452-0.136-0.452-0.453v-6.348l1.128,0.246   c-0.121,0.394-0.186,0.812-0.186,1.245c0,2.411,2.016,4.369,4.5,4.369c2.486,0,4.501-1.957,4.501-4.369   c0-0.433-0.066-0.851-0.186-1.245l1.106-0.246V17.274z M21.431,9.111c0,0.251-0.202,0.453-0.452,0.453h-1.811   c-0.25,0-0.452-0.202-0.452-0.453V7.297c0-0.251,0.202-0.453,0.452-0.453h1.811c0.25,0,0.452,0.202,0.452,0.453V9.111z" />
  </g>
</svg>